<svg width="65" height="85" viewBox="0 0 65 85" fill="none" xmlns="http://www.w3.org/2000/svg">
<path d="M38.871 2.35691L39.3353 2.32362V1.85819V1V0.5H38.8353H26.7824V0.499956L26.7758 0.500044C20.136 0.587754 14.486 4.64587 14.486 10.3543C14.486 15.342 17.7155 20.0319 22.8028 21.5698C9.79678 25.6469 0.5 37.6553 0.5 52.1612C0.5 70.0221 14.4783 84.5 32.5425 84.5C50.52 84.5 64.5864 70.0229 64.4996 52.1588C64.4183 35.414 52.127 21.8703 35.916 20.2436V6.14913C35.916 5.10258 36.1575 4.18559 36.634 3.52328C37.0987 2.87728 37.8147 2.43266 38.871 2.35691ZM26.7824 2.35819H32.3516V20.081C31.3444 20.0892 30.3489 20.1423 29.3668 20.2383H26.7824C23.9665 20.2383 21.7792 19.1984 20.2895 17.482C18.7927 15.7574 17.965 13.3079 17.965 10.4401H17.9651L17.9649 10.4305C17.8855 6.28532 21.8089 2.35819 26.7824 2.35819ZM35.916 55.924V51.0285C37.0658 46.0273 41.0891 41.9566 46.4375 41.0187C51.7925 40.0797 56.9575 42.5472 59.7249 46.8704C59.9515 48.5502 60.0717 50.289 60.0804 52.0778C60.1226 60.8576 57.4192 68.4997 52.6293 73.9399C47.8444 79.3744 40.9521 82.6418 32.5425 82.6418C24.1719 82.6418 17.2578 79.4573 12.4424 74.0763C7.62268 68.6906 4.87699 61.0714 4.91924 52.1636C4.9538 44.9815 6.79727 38.6178 10.0988 33.6096C12.2844 31.8788 14.9959 30.7717 17.984 30.5749C24.4931 30.1464 30.2706 34.1754 32.3516 40.06V55.924C32.3516 57.0781 32.1442 57.966 31.7061 58.5853C31.2831 59.1833 30.5952 59.6004 29.4662 59.7177L29.0178 59.7642V60.215V61.0732V61.5732H29.5178H38.9208H39.4208V61.0732V60.215V59.7642L38.9724 59.7177C37.8401 59.6001 37.102 59.1795 36.6359 58.5702C36.1598 57.948 35.916 57.0619 35.916 55.924ZM13.973 28.9777C17.9995 25.1714 23.2409 22.7218 29.4331 22.0965H32.3516V35.1172C29.1218 30.6374 23.7379 27.8708 17.8323 28.2596C16.493 28.3478 15.2009 28.5935 13.973 28.9777ZM35.916 45.3125V22.1079C47.5574 23.3341 55.7872 31.1079 58.8089 42.2974C55.4261 39.3502 50.797 37.8987 46.0386 38.7331C41.7445 39.4861 38.1783 41.9546 35.916 45.3125Z" fill="#FDFBFC" stroke="#FDFBFC"/>
</svg>
