<svg width="109" height="138" viewBox="0 0 109 138" fill="none" xmlns="http://www.w3.org/2000/svg">
<path d="M64.9616 5.85581L66.3577 5.75882V4.35942V3V1.5H64.8577H45.1522H45.1426L45.133 1.50012C39.5465 1.57162 34.4046 3.25075 30.6232 6.10139C26.8307 8.96037 24.3661 13.0435 24.3661 17.8177C24.3661 25.3898 29.0144 32.5034 36.4445 35.5579C15.9763 42.6575 1.5 61.4494 1.5 84.0424C1.5 112.759 24.6928 135.977 54.5696 135.977C84.3023 135.977 107.643 112.762 107.499 84.0349C107.365 57.3222 87.2835 35.7213 60.7675 32.8419V11.1565C60.7675 9.60555 61.1378 8.31988 61.7995 7.42869C62.4277 6.58251 63.4095 5.96365 64.9616 5.85581ZM60.7675 90.003V82.3346C62.6052 74.7368 68.9411 68.5274 77.3968 67.0907C85.8393 65.6564 93.9649 69.3937 98.3577 75.9263C98.7089 78.5033 98.8955 81.1701 98.9092 83.914C98.9775 97.6638 94.6092 109.587 86.9133 118.056C79.2295 126.511 68.1458 131.618 54.5696 131.618C41.052 131.618 29.9321 126.639 22.2002 118.268C14.4584 109.886 10.0219 98.0014 10.0902 84.0498C10.1458 72.8455 13.1016 62.9445 18.3699 55.1571C21.8224 52.5352 26.0964 50.8558 30.8093 50.5551C41.1236 49.8971 50.247 56.0531 53.5748 65.0038V90.003C53.5748 91.7569 53.2468 92.9849 52.6579 93.7915C52.1107 94.5411 51.1842 95.1356 49.4742 95.3076L48.1244 95.4435V96.8001V98.1595V99.6595H49.6244H64.9974H66.4974V98.1595V96.8001V95.4435L65.1476 95.3076C63.4285 95.1346 62.4091 94.5306 61.7898 93.7464C61.1448 92.9295 60.7675 91.7065 60.7675 90.003ZM96.2327 66.5427C90.7536 62.6509 83.7241 60.8496 76.5244 62.0729C70.0639 63.1705 64.5754 66.5155 60.7675 71.1467V37.223C78.3723 39.2913 90.9982 50.4336 96.2327 66.5427ZM45.1522 5.85942H53.5748V32.5269C52.1504 32.5548 50.7404 32.6354 49.3465 32.7667H45.1522C40.7137 32.7667 37.3273 31.1839 35.0367 28.6268C32.7281 26.0496 31.419 22.3529 31.419 17.9536V17.9388L31.4187 17.924C31.2986 11.8512 37.3019 5.85942 45.1522 5.85942ZM53.5748 55.0858C48.0766 48.709 39.6453 44.8894 30.4776 45.4743C29.2701 45.5513 28.0852 45.7025 26.9274 45.9232C33.0472 41.1025 40.6712 37.9974 49.518 37.1261H53.5748V55.0858Z" stroke="#7D876E" stroke-width="3"/>
</svg>
