<svg width="49" height="63" viewBox="0 0 49 63" fill="none" xmlns="http://www.w3.org/2000/svg">
<path d="M29.2616 2.12947L29.7263 2.09664V1.63072V1V0.5H29.2263H20.2345V0.499958L20.228 0.500042C15.2456 0.56488 10.934 3.57098 10.934 7.87481C10.934 11.4722 13.2153 14.8548 16.8333 16.1166C7.28924 19.2439 0.5 28.0212 0.5 38.6004C0.5 51.8053 10.9901 62.5 24.5317 62.5C38.0082 62.5 48.5648 51.8061 48.4997 38.5979C48.4388 26.2577 39.2727 16.2757 27.1754 15.0226V4.7843C27.1754 4.03487 27.3512 3.39197 27.6851 2.93473C28.0075 2.49321 28.5065 2.18281 29.2616 2.12947ZM27.1754 41.3659V37.7839C28.0256 34.1684 30.9827 31.222 34.9185 30.5421C38.8548 29.8621 42.6488 31.6429 44.6891 34.761C44.8546 35.98 44.9425 37.2417 44.9488 38.5398C44.9802 44.9632 42.9727 50.5458 39.4243 54.5161C35.8804 58.4812 30.773 60.8693 24.5317 60.8693C18.3186 60.8693 13.1949 58.5415 9.62853 54.6155C6.05835 50.6854 4.01948 45.1202 4.05086 38.6029C4.07649 33.3564 5.44116 28.7129 7.88036 25.0594C9.48845 23.8101 11.4816 23.0106 13.6785 22.8681C18.4728 22.5571 22.7234 25.475 24.2623 29.7308V41.3659C24.2623 42.2004 24.1096 42.8197 23.8061 43.2423C23.5172 43.6447 23.0409 43.9385 22.2243 44.022L21.7752 44.068V44.5194V45.1502V45.6502H22.2752H29.2901H29.7901V45.1502V44.5194V44.068L29.341 44.022C28.5212 43.9382 28.0055 43.641 27.6841 43.2273C27.3535 42.8015 27.1754 42.1839 27.1754 41.3659ZM13.7834 7.93788H13.7835L13.7833 7.92816C13.7258 4.97283 16.5777 2.13072 20.2345 2.13072H24.2623V14.8922C23.5523 14.9014 22.85 14.9398 22.1567 15.0065H20.2345C18.1649 15.0065 16.5685 14.2546 15.484 13.0236C14.3929 11.7851 13.7834 10.0191 13.7834 7.93788ZM11.1827 21.2814C14.1053 18.7215 17.8392 17.074 22.218 16.6372H24.2623V25.6921C21.8064 22.5427 17.8613 20.6223 13.5495 20.9019C12.7353 20.9547 11.9441 21.0837 11.1827 21.2814ZM27.1754 33.1654V16.6599C35.5912 17.5863 41.5766 23.0726 43.8917 30.9869C41.3719 28.9738 38.02 28.0065 34.5795 28.6008C31.4847 29.1354 28.8895 30.8352 27.1754 33.1654Z" fill="#7D876E" stroke="#7D876E"/>
</svg>
