<svg width="914" height="1163" viewBox="0 0 914 1163" fill="none" xmlns="http://www.w3.org/2000/svg">
<path d="M548.745 13.5031L549.211 13.4708V13.0043V1V0.5H548.711L374.231 0.499959L374.225 0.500041C327.111 1.10142 284.312 15.2336 253.28 38.5639C222.245 61.897 202.965 94.4463 202.965 131.847C202.965 206.663 258.908 276.433 344.263 287.945C145.457 336.144 0.5 507.523 0.5 716.641C0.5 963.013 199.96 1162.5 457.616 1162.5C714.033 1162.5 914.733 963.014 913.494 716.638C912.323 483.644 733.871 295.803 499.713 276.091V73.0258C499.713 57.4925 503.409 43.2028 511.37 32.5098C519.32 21.8316 531.555 14.6942 548.745 13.5031ZM413.78 828.799L413.33 828.844V829.296V841.301V841.801H413.83H549.948H550.448V841.301V829.296V828.844L549.998 828.799C532.157 827.008 519.611 820.454 511.515 810.229C503.411 799.994 499.713 786.014 499.713 769.275V700.068C516.707 627.346 577.123 568.02 657.596 554.384C738.423 540.688 816.327 577.01 857.592 640.355C861.041 664.577 862.867 689.65 862.997 715.443C863.615 839.58 824.052 948.092 753.459 1025.56C682.87 1103.03 581.227 1149.5 457.616 1149.5C334.619 1149.5 232.667 1104.23 161.616 1027.51C90.5609 950.791 50.3794 842.58 50.9976 716.643C51.5054 614.69 78.6992 524.086 127.678 452.707C160.499 427.332 201.363 411.08 246.42 408.213C344.168 401.994 430.826 460.729 461.59 546.267V769.275C461.59 786.031 458.503 800.013 451.013 810.244C443.537 820.457 431.617 827.009 413.78 828.799ZM239.85 133.047L239.85 133.037C238.619 70.9483 298.971 13.5043 374.231 13.5043H461.59V274.39C460.679 274.385 459.766 274.383 458.853 274.383C443.014 274.383 427.376 275.132 411.973 276.599H374.231C331.667 276.599 298.087 261.343 275.144 235.8C252.195 210.25 239.85 174.365 239.85 133.047ZM412.264 289.603H461.59V500.154C418.372 428.692 336.129 382.996 245.111 388.786C215.638 390.662 187.803 397.773 162.509 409.124C224.304 342.548 309.497 299.554 412.264 289.603ZM499.713 644.439V289.102C683.164 304.752 810.4 426.143 849.959 599.042C801.707 548.813 729.065 522.511 654.153 535.205C585.382 546.858 529.892 588.8 499.713 644.439Z" fill="#7D876E" stroke="#7D876E"/>
</svg>
